<svg xmlns="http://www.w3.org/2000/svg" xmlns:xlink="http://www.w3.org/1999/xlink" width="460" height="460"><defs><linearGradient id="a" x1="-268.32" y1="730.32" x2="-267.52" y2="729.52" gradientTransform="matrix(460 0 0 -460 123471 335991)" gradientUnits="userSpaceOnUse"><stop offset="0" stop-color="#97d6d2"/><stop offset="1" stop-color="#4d9182"/></linearGradient><linearGradient id="b" x1="-267.39" y1="729.39" x2="-268.19" y2="730.19" gradientTransform="matrix(380 0 0 -380 101991 277551)" xlink:href="#a"/></defs><rect width="460" height="460" rx="50" style="fill:url(#a)"/><rect x="40" y="40" width="380" height="380" rx="40" style="fill:url(#b)"/><g style="isolation:isolate"><path d="m122.1 344.6 2.4-30.3a119.63 119.63 0 0 1-34-6.45 90.79 90.79 0 0 1-28.1-15.75l11.7-18a81.85 81.85 0 0 0 23.25 13 97 97 0 0 0 27.45 5.55V233.9l-11.4-1.5q-22.8-3-34.05-14.7T68.1 187.1q0-21.9 15-35.1t41.4-15l-2.4-30.6h22.8l-2.4 30.6a128.28 128.28 0 0 1 27.5 5.25 86.16 86.16 0 0 1 24.1 11.85l-10.8 18.6a98.71 98.71 0 0 0-19.5-9.7 80.69 80.69 0 0 0-21.6-4.65v56.4l12 1.5q23.1 3 34.2 14.7t11.1 30.6q0 22.5-14.7 36.15t-42.3 16l2.4 30.9Zm2.7-132.3V158q-16.5 1.2-25.35 8.55T90.6 186.2q0 11.1 6.9 17.4t22.2 8.1Zm17.4 80.1q34.8-3.3 34.8-30 0-11.1-7.05-17.4t-22.35-8.1l-5.4-.6ZM219 361.4v-19.8h174v19.8Z" style="fill:#203050"/></g></svg>