<svg version="1.0" xmlns="http://www.w3.org/2000/svg" width="933.333" height="933.333" viewBox="0 0 700 700"><path d="M186 163.7c0 1 .7 9.4 1.5 18.8.8 9.3 1.5 19.1 1.5 21.6v4.6l-7.3.7c-21.6 1.9-42.3 10.5-56.9 23.5-7 6.3-14 17.3-17.4 27.7-2.7 8.3-2.9 9.9-2.9 24.4.1 14.3.3 16.1 2.8 23.5 3.5 9.7 10.1 19.9 17 26 10.6 9.4 30.5 16.9 51.7 19.4 5.2.7 10.5 1.4 11.8 1.7l2.2.4V445.3l-7.2-.6c-21.1-1.6-44.2-9.7-62.2-21.8-4.3-2.8-8.1-4.8-8.6-4.3-.4.5-4.4 6.5-8.9 13.4l-8 12.5 2.2 1.8c5.2 4.1 16.2 11 23.4 14.6 18 9.1 35.8 13.9 62.3 16.9 6.5.7 6.5.7 6.3 3.7-.2 1.7-.7 9.3-1.3 17-.6 7.7-1.3 16.6-1.6 19.7l-.6 5.8H220v-2.8c0-1.5-.7-10.6-1.5-20.2s-1.5-18.9-1.5-20.6v-3.1l8.8-1.2c38.9-5.4 64.4-23.5 73.9-52.6 3.4-10.5 4.3-31 1.9-42.5-5.5-25.9-23.5-42.4-54.1-49.5-5-1.1-27.9-4.5-30.7-4.5-.4 0-.8-19.4-.8-43.1v-43.1l6.3.7c14.9 1.7 35.5 8.8 49.4 16.9 3.4 2 6.5 3.6 7 3.6.4 0 4.3-6.2 8.6-13.7l7.8-13.7-2.3-1.8c-4.8-3.7-23.7-12.7-32.9-15.6-10.9-3.5-26.2-6.8-36.1-7.8-8-.8-7.4 1.9-5.3-23.4.8-9.6 1.5-19 1.5-20.8V162h-17c-15.5 0-17 .2-17 1.7zm4 117.9v41.6l-5.7-.7c-23.5-2.8-36.8-9.7-43-22.3-2.5-5.2-2.8-6.7-2.8-16.7 0-10.5.2-11.4 3.3-17.7 6.4-13.1 20.7-21.8 40.7-24.7 3.3-.5 6.3-.9 6.8-1 .4 0 .7 18.6.7 41.5zm44 80.4c12.4 2.5 20.6 6.6 26.8 13.4 6.2 6.8 8.3 13.3 8.3 24.8-.1 17.6-7.3 29.4-22.8 37.2-6 3-16.9 6.2-24.7 7.1l-5.6.7V360h4.3c2.3 0 8.5.9 13.7 2zM333.2 534.7l.3 14.8 132.3.3 132.2.2v-30H332.9l.3 14.7z"/></svg>